# xmcd
#
# Track frame offsets:
#	150
#	15377
#	43705
#	72910
#	99075
#
# Disc length: 1696 seconds
#
# Revision: 2
# Processed by: cddbd v1.5.1PL0 Copyright (c) Steve Scherf et al.
# Submitted via: EasyCDDAExtractor 8.1.2.3
#
DISCID=31069e05
DTITLE=Interactive - Fanatic (Maxi-CD)
DYEAR=1998
DGENRE=Dance
TTITLE0=Fanatic (Radio Edit)
TTITLE1=Fanatic (Extended Mix)
TTITLE2=Fanatic (The Dukes Remix)
TTITLE3=Fanatic (Club Remix)
TTITLE4=Fanatic (Extended Dub Mix)
EXTD=
EXTT0=
EXTT1=
EXTT2=
EXTT3=
EXTT4=
PLAYORDER=
